<?xml version="1.0" encoding="utf-8" standalone="no"?>
<!DOCTYPE svg PUBLIC "-//W3C//DTD SVG 1.1//EN"
  "http://www.w3.org/Graphics/SVG/1.1/DTD/svg11.dtd">
<svg xmlns:xlink="http://www.w3.org/1999/xlink" width="460.8pt" height="345.6pt" viewBox="0 0 460.8 345.6" xmlns="http://www.w3.org/2000/svg" version="1.1">
 <metadata>
  <rdf:RDF xmlns:dc="http://purl.org/dc/elements/1.1/" xmlns:cc="http://creativecommons.org/ns#" xmlns:rdf="http://www.w3.org/1999/02/22-rdf-syntax-ns#">
   <cc:Work>
    <dc:type rdf:resource="http://purl.org/dc/dcmitype/StillImage"/>
    <dc:date>2024-07-19T01:19:42.375256</dc:date>
    <dc:format>image/svg+xml</dc:format>
    <dc:creator>
     <cc:Agent>
      <dc:title>Matplotlib v3.9.1, https://matplotlib.org/</dc:title>
     </cc:Agent>
    </dc:creator>
   </cc:Work>
  </rdf:RDF>
 </metadata>
 <defs>
  <style type="text/css">*{stroke-linejoin: round; stroke-linecap: butt}</style>
 </defs>
 <g id="figure_1">
  <g id="patch_1">
   <path d="M 0 345.6 
L 460.8 345.6 
L 460.8 0 
L 0 0 
z
" style="fill: #ffffff"/>
  </g>
  <g id="axes_1">
   <g id="patch_2">
    <path d="M 57.6 162.432 
L 414.72 162.432 
L 414.72 41.472 
L 57.6 41.472 
z
" style="fill: #ffffff"/>
   </g>
   <g id="matplotlib.axis_1">
    <g id="xtick_1">
     <g id="line2d_1">
      <defs>
       <path id="mae0d016789" d="M 0 0 
L 0 3.5 
" style="stroke: #000000; stroke-width: 0.8"/>
      </defs>
      <g>
       <use xlink:href="#mae0d016789" x="73.832727" y="162.432" style="stroke: #000000; stroke-width: 0.8"/>
      </g>
     </g>
     <g id="text_1">
      <!-- 0 -->
      <g transform="translate(70.651477 177.030437) scale(0.1 -0.1)">
       <defs>
        <path id="DejaVuSans-30" d="M 2034 4250 
Q 1547 4250 1301 3770 
Q 1056 3291 1056 2328 
Q 1056 1369 1301 889 
Q 1547 409 2034 409 
Q 2525 409 2770 889 
Q 3016 1369 3016 2328 
Q 3016 3291 2770 3770 
Q 2525 4250 2034 4250 
z
M 2034 4750 
Q 2819 4750 3233 4129 
Q 3647 3509 3647 2328 
Q 3647 1150 3233 529 
Q 2819 -91 2034 -91 
Q 1250 -91 836 529 
Q 422 1150 422 2328 
Q 422 3509 836 4129 
Q 1250 4750 2034 4750 
z
" transform="scale(0.015625)"/>
       </defs>
       <use xlink:href="#DejaVuSans-30"/>
      </g>
     </g>
    </g>
    <g id="xtick_2">
     <g id="line2d_2">
      <g>
       <use xlink:href="#mae0d016789" x="117.12" y="162.432" style="stroke: #000000; stroke-width: 0.8"/>
      </g>
     </g>
     <g id="text_2">
      <!-- 2 -->
      <g transform="translate(113.93875 177.030437) scale(0.1 -0.1)">
       <defs>
        <path id="DejaVuSans-32" d="M 1228 531 
L 3431 531 
L 3431 0 
L 469 0 
L 469 531 
Q 828 903 1448 1529 
Q 2069 2156 2228 2338 
Q 2531 2678 2651 2914 
Q 2772 3150 2772 3378 
Q 2772 3750 2511 3984 
Q 2250 4219 1831 4219 
Q 1534 4219 1204 4116 
Q 875 4013 500 3803 
L 500 4441 
Q 881 4594 1212 4672 
Q 1544 4750 1819 4750 
Q 2544 4750 2975 4387 
Q 3406 4025 3406 3419 
Q 3406 3131 3298 2873 
Q 3191 2616 2906 2266 
Q 2828 2175 2409 1742 
Q 1991 1309 1228 531 
z
" transform="scale(0.015625)"/>
       </defs>
       <use xlink:href="#DejaVuSans-32"/>
      </g>
     </g>
    </g>
    <g id="xtick_3">
     <g id="line2d_3">
      <g>
       <use xlink:href="#mae0d016789" x="160.407273" y="162.432" style="stroke: #000000; stroke-width: 0.8"/>
      </g>
     </g>
     <g id="text_3">
      <!-- 4 -->
      <g transform="translate(157.226023 177.030437) scale(0.1 -0.1)">
       <defs>
        <path id="DejaVuSans-34" d="M 2419 4116 
L 825 1625 
L 2419 1625 
L 2419 4116 
z
M 2253 4666 
L 3047 4666 
L 3047 1625 
L 3713 1625 
L 3713 1100 
L 3047 1100 
L 3047 0 
L 2419 0 
L 2419 1100 
L 313 1100 
L 313 1709 
L 2253 4666 
z
" transform="scale(0.015625)"/>
       </defs>
       <use xlink:href="#DejaVuSans-34"/>
      </g>
     </g>
    </g>
    <g id="xtick_4">
     <g id="line2d_4">
      <g>
       <use xlink:href="#mae0d016789" x="203.694545" y="162.432" style="stroke: #000000; stroke-width: 0.8"/>
      </g>
     </g>
     <g id="text_4">
      <!-- 6 -->
      <g transform="translate(200.513295 177.030437) scale(0.1 -0.1)">
       <defs>
        <path id="DejaVuSans-36" d="M 2113 2584 
Q 1688 2584 1439 2293 
Q 1191 2003 1191 1497 
Q 1191 994 1439 701 
Q 1688 409 2113 409 
Q 2538 409 2786 701 
Q 3034 994 3034 1497 
Q 3034 2003 2786 2293 
Q 2538 2584 2113 2584 
z
M 3366 4563 
L 3366 3988 
Q 3128 4100 2886 4159 
Q 2644 4219 2406 4219 
Q 1781 4219 1451 3797 
Q 1122 3375 1075 2522 
Q 1259 2794 1537 2939 
Q 1816 3084 2150 3084 
Q 2853 3084 3261 2657 
Q 3669 2231 3669 1497 
Q 3669 778 3244 343 
Q 2819 -91 2113 -91 
Q 1303 -91 875 529 
Q 447 1150 447 2328 
Q 447 3434 972 4092 
Q 1497 4750 2381 4750 
Q 2619 4750 2861 4703 
Q 3103 4656 3366 4563 
z
" transform="scale(0.015625)"/>
       </defs>
       <use xlink:href="#DejaVuSans-36"/>
      </g>
     </g>
    </g>
    <g id="xtick_5">
     <g id="line2d_5">
      <g>
       <use xlink:href="#mae0d016789" x="246.981818" y="162.432" style="stroke: #000000; stroke-width: 0.8"/>
      </g>
     </g>
     <g id="text_5">
      <!-- 8 -->
      <g transform="translate(243.800568 177.030437) scale(0.1 -0.1)">
       <defs>
        <path id="DejaVuSans-38" d="M 2034 2216 
Q 1584 2216 1326 1975 
Q 1069 1734 1069 1313 
Q 1069 891 1326 650 
Q 1584 409 2034 409 
Q 2484 409 2743 651 
Q 3003 894 3003 1313 
Q 3003 1734 2745 1975 
Q 2488 2216 2034 2216 
z
M 1403 2484 
Q 997 2584 770 2862 
Q 544 3141 544 3541 
Q 544 4100 942 4425 
Q 1341 4750 2034 4750 
Q 2731 4750 3128 4425 
Q 3525 4100 3525 3541 
Q 3525 3141 3298 2862 
Q 3072 2584 2669 2484 
Q 3125 2378 3379 2068 
Q 3634 1759 3634 1313 
Q 3634 634 3220 271 
Q 2806 -91 2034 -91 
Q 1263 -91 848 271 
Q 434 634 434 1313 
Q 434 1759 690 2068 
Q 947 2378 1403 2484 
z
M 1172 3481 
Q 1172 3119 1398 2916 
Q 1625 2713 2034 2713 
Q 2441 2713 2670 2916 
Q 2900 3119 2900 3481 
Q 2900 3844 2670 4047 
Q 2441 4250 2034 4250 
Q 1625 4250 1398 4047 
Q 1172 3844 1172 3481 
z
" transform="scale(0.015625)"/>
       </defs>
       <use xlink:href="#DejaVuSans-38"/>
      </g>
     </g>
    </g>
    <g id="xtick_6">
     <g id="line2d_6">
      <g>
       <use xlink:href="#mae0d016789" x="290.269091" y="162.432" style="stroke: #000000; stroke-width: 0.8"/>
      </g>
     </g>
     <g id="text_6">
      <!-- 10 -->
      <g transform="translate(283.906591 177.030437) scale(0.1 -0.1)">
       <defs>
        <path id="DejaVuSans-31" d="M 794 531 
L 1825 531 
L 1825 4091 
L 703 3866 
L 703 4441 
L 1819 4666 
L 2450 4666 
L 2450 531 
L 3481 531 
L 3481 0 
L 794 0 
L 794 531 
z
" transform="scale(0.015625)"/>
       </defs>
       <use xlink:href="#DejaVuSans-31"/>
       <use xlink:href="#DejaVuSans-30" x="63.623047"/>
      </g>
     </g>
    </g>
    <g id="xtick_7">
     <g id="line2d_7">
      <g>
       <use xlink:href="#mae0d016789" x="333.556364" y="162.432" style="stroke: #000000; stroke-width: 0.8"/>
      </g>
     </g>
     <g id="text_7">
      <!-- 12 -->
      <g transform="translate(327.193864 177.030437) scale(0.1 -0.1)">
       <use xlink:href="#DejaVuSans-31"/>
       <use xlink:href="#DejaVuSans-32" x="63.623047"/>
      </g>
     </g>
    </g>
    <g id="xtick_8">
     <g id="line2d_8">
      <g>
       <use xlink:href="#mae0d016789" x="376.843636" y="162.432" style="stroke: #000000; stroke-width: 0.8"/>
      </g>
     </g>
     <g id="text_8">
      <!-- 14 -->
      <g transform="translate(370.481136 177.030437) scale(0.1 -0.1)">
       <use xlink:href="#DejaVuSans-31"/>
       <use xlink:href="#DejaVuSans-34" x="63.623047"/>
      </g>
     </g>
    </g>
   </g>
   <g id="matplotlib.axis_2">
    <g id="ytick_1">
     <g id="line2d_9">
      <defs>
       <path id="m72e9ed79f1" d="M 0 0 
L -3.5 0 
" style="stroke: #000000; stroke-width: 0.8"/>
      </defs>
      <g>
       <use xlink:href="#m72e9ed79f1" x="57.6" y="156.933838" style="stroke: #000000; stroke-width: 0.8"/>
      </g>
     </g>
     <g id="text_9">
      <!-- −1.0 -->
      <g transform="translate(26.317187 160.733056) scale(0.1 -0.1)">
       <defs>
        <path id="DejaVuSans-2212" d="M 678 2272 
L 4684 2272 
L 4684 1741 
L 678 1741 
L 678 2272 
z
" transform="scale(0.015625)"/>
        <path id="DejaVuSans-2e" d="M 684 794 
L 1344 794 
L 1344 0 
L 684 0 
L 684 794 
z
" transform="scale(0.015625)"/>
       </defs>
       <use xlink:href="#DejaVuSans-2212"/>
       <use xlink:href="#DejaVuSans-31" x="83.789062"/>
       <use xlink:href="#DejaVuSans-2e" x="147.412109"/>
       <use xlink:href="#DejaVuSans-30" x="179.199219"/>
      </g>
     </g>
    </g>
    <g id="ytick_2">
     <g id="line2d_10">
      <g>
       <use xlink:href="#m72e9ed79f1" x="57.6" y="129.442924" style="stroke: #000000; stroke-width: 0.8"/>
      </g>
     </g>
     <g id="text_10">
      <!-- −0.5 -->
      <g transform="translate(26.317187 133.242142) scale(0.1 -0.1)">
       <defs>
        <path id="DejaVuSans-35" d="M 691 4666 
L 3169 4666 
L 3169 4134 
L 1269 4134 
L 1269 2991 
Q 1406 3038 1543 3061 
Q 1681 3084 1819 3084 
Q 2600 3084 3056 2656 
Q 3513 2228 3513 1497 
Q 3513 744 3044 326 
Q 2575 -91 1722 -91 
Q 1428 -91 1123 -41 
Q 819 9 494 109 
L 494 744 
Q 775 591 1075 516 
Q 1375 441 1709 441 
Q 2250 441 2565 725 
Q 2881 1009 2881 1497 
Q 2881 1984 2565 2268 
Q 2250 2553 1709 2553 
Q 1456 2553 1204 2497 
Q 953 2441 691 2322 
L 691 4666 
z
" transform="scale(0.015625)"/>
       </defs>
       <use xlink:href="#DejaVuSans-2212"/>
       <use xlink:href="#DejaVuSans-30" x="83.789062"/>
       <use xlink:href="#DejaVuSans-2e" x="147.412109"/>
       <use xlink:href="#DejaVuSans-35" x="179.199219"/>
      </g>
     </g>
    </g>
    <g id="ytick_3">
     <g id="line2d_11">
      <g>
       <use xlink:href="#m72e9ed79f1" x="57.6" y="101.95201" style="stroke: #000000; stroke-width: 0.8"/>
      </g>
     </g>
     <g id="text_11">
      <!-- 0.0 -->
      <g transform="translate(34.696875 105.751229) scale(0.1 -0.1)">
       <use xlink:href="#DejaVuSans-30"/>
       <use xlink:href="#DejaVuSans-2e" x="63.623047"/>
       <use xlink:href="#DejaVuSans-30" x="95.410156"/>
      </g>
     </g>
    </g>
    <g id="ytick_4">
     <g id="line2d_12">
      <g>
       <use xlink:href="#m72e9ed79f1" x="57.6" y="74.461096" style="stroke: #000000; stroke-width: 0.8"/>
      </g>
     </g>
     <g id="text_12">
      <!-- 0.5 -->
      <g transform="translate(34.696875 78.260315) scale(0.1 -0.1)">
       <use xlink:href="#DejaVuSans-30"/>
       <use xlink:href="#DejaVuSans-2e" x="63.623047"/>
       <use xlink:href="#DejaVuSans-35" x="95.410156"/>
      </g>
     </g>
    </g>
    <g id="ytick_5">
     <g id="line2d_13">
      <g>
       <use xlink:href="#m72e9ed79f1" x="57.6" y="46.970182" style="stroke: #000000; stroke-width: 0.8"/>
      </g>
     </g>
     <g id="text_13">
      <!-- 1.0 -->
      <g transform="translate(34.696875 50.769401) scale(0.1 -0.1)">
       <use xlink:href="#DejaVuSans-31"/>
       <use xlink:href="#DejaVuSans-2e" x="63.623047"/>
       <use xlink:href="#DejaVuSans-30" x="95.410156"/>
      </g>
     </g>
    </g>
    <g id="text_14">
     <!-- Position $x$ -->
     <g transform="translate(20.2375 126.152) rotate(-90) scale(0.1 -0.1)">
      <defs>
       <path id="DejaVuSans-50" d="M 1259 4147 
L 1259 2394 
L 2053 2394 
Q 2494 2394 2734 2622 
Q 2975 2850 2975 3272 
Q 2975 3691 2734 3919 
Q 2494 4147 2053 4147 
L 1259 4147 
z
M 628 4666 
L 2053 4666 
Q 2838 4666 3239 4311 
Q 3641 3956 3641 3272 
Q 3641 2581 3239 2228 
Q 2838 1875 2053 1875 
L 1259 1875 
L 1259 0 
L 628 0 
L 628 4666 
z
" transform="scale(0.015625)"/>
       <path id="DejaVuSans-6f" d="M 1959 3097 
Q 1497 3097 1228 2736 
Q 959 2375 959 1747 
Q 959 1119 1226 758 
Q 1494 397 1959 397 
Q 2419 397 2687 759 
Q 2956 1122 2956 1747 
Q 2956 2369 2687 2733 
Q 2419 3097 1959 3097 
z
M 1959 3584 
Q 2709 3584 3137 3096 
Q 3566 2609 3566 1747 
Q 3566 888 3137 398 
Q 2709 -91 1959 -91 
Q 1206 -91 779 398 
Q 353 888 353 1747 
Q 353 2609 779 3096 
Q 1206 3584 1959 3584 
z
" transform="scale(0.015625)"/>
       <path id="DejaVuSans-73" d="M 2834 3397 
L 2834 2853 
Q 2591 2978 2328 3040 
Q 2066 3103 1784 3103 
Q 1356 3103 1142 2972 
Q 928 2841 928 2578 
Q 928 2378 1081 2264 
Q 1234 2150 1697 2047 
L 1894 2003 
Q 2506 1872 2764 1633 
Q 3022 1394 3022 966 
Q 3022 478 2636 193 
Q 2250 -91 1575 -91 
Q 1294 -91 989 -36 
Q 684 19 347 128 
L 347 722 
Q 666 556 975 473 
Q 1284 391 1588 391 
Q 1994 391 2212 530 
Q 2431 669 2431 922 
Q 2431 1156 2273 1281 
Q 2116 1406 1581 1522 
L 1381 1569 
Q 847 1681 609 1914 
Q 372 2147 372 2553 
Q 372 3047 722 3315 
Q 1072 3584 1716 3584 
Q 2034 3584 2315 3537 
Q 2597 3491 2834 3397 
z
" transform="scale(0.015625)"/>
       <path id="DejaVuSans-69" d="M 603 3500 
L 1178 3500 
L 1178 0 
L 603 0 
L 603 3500 
z
M 603 4863 
L 1178 4863 
L 1178 4134 
L 603 4134 
L 603 4863 
z
" transform="scale(0.015625)"/>
       <path id="DejaVuSans-74" d="M 1172 4494 
L 1172 3500 
L 2356 3500 
L 2356 3053 
L 1172 3053 
L 1172 1153 
Q 1172 725 1289 603 
Q 1406 481 1766 481 
L 2356 481 
L 2356 0 
L 1766 0 
Q 1100 0 847 248 
Q 594 497 594 1153 
L 594 3053 
L 172 3053 
L 172 3500 
L 594 3500 
L 594 4494 
L 1172 4494 
z
" transform="scale(0.015625)"/>
       <path id="DejaVuSans-6e" d="M 3513 2113 
L 3513 0 
L 2938 0 
L 2938 2094 
Q 2938 2591 2744 2837 
Q 2550 3084 2163 3084 
Q 1697 3084 1428 2787 
Q 1159 2491 1159 1978 
L 1159 0 
L 581 0 
L 581 3500 
L 1159 3500 
L 1159 2956 
Q 1366 3272 1645 3428 
Q 1925 3584 2291 3584 
Q 2894 3584 3203 3211 
Q 3513 2838 3513 2113 
z
" transform="scale(0.015625)"/>
       <path id="DejaVuSans-20" transform="scale(0.015625)"/>
       <path id="DejaVuSans-Oblique-78" d="M 3841 3500 
L 2234 1784 
L 3219 0 
L 2559 0 
L 1819 1388 
L 531 0 
L -166 0 
L 1556 1844 
L 641 3500 
L 1300 3500 
L 1972 2234 
L 3144 3500 
L 3841 3500 
z
" transform="scale(0.015625)"/>
      </defs>
      <use xlink:href="#DejaVuSans-50" transform="translate(0 0.015625)"/>
      <use xlink:href="#DejaVuSans-6f" transform="translate(60.302734 0.015625)"/>
      <use xlink:href="#DejaVuSans-73" transform="translate(121.484375 0.015625)"/>
      <use xlink:href="#DejaVuSans-69" transform="translate(173.583984 0.015625)"/>
      <use xlink:href="#DejaVuSans-74" transform="translate(201.367188 0.015625)"/>
      <use xlink:href="#DejaVuSans-69" transform="translate(240.576172 0.015625)"/>
      <use xlink:href="#DejaVuSans-6f" transform="translate(268.359375 0.015625)"/>
      <use xlink:href="#DejaVuSans-6e" transform="translate(329.541016 0.015625)"/>
      <use xlink:href="#DejaVuSans-20" transform="translate(392.919922 0.015625)"/>
      <use xlink:href="#DejaVuSans-Oblique-78" transform="translate(424.707031 0.015625)"/>
     </g>
    </g>
   </g>
   <g id="line2d_14">
    <path d="M 73.832727 46.970182 
L 74.709382 47.082896 
L 75.586037 47.420575 
L 76.527629 48.032248 
L 77.534159 48.968021 
L 78.605626 50.278664 
L 79.7745 52.069019 
L 81.073248 54.48397 
L 82.501871 57.632623 
L 84.092837 61.704986 
L 85.878615 66.919926 
L 87.924144 73.619198 
L 90.359296 82.404575 
L 93.606166 95.027258 
L 101.073968 124.334564 
L 103.574058 133.083506 
L 105.652055 139.578756 
L 107.470302 144.556812 
L 109.061268 148.299569 
L 110.52236 151.18698 
L 111.821108 153.283991 
L 112.989981 154.77697 
L 114.061448 155.807594 
L 115.067978 156.475424 
L 115.977102 156.825428 
L 116.853757 156.933796 
L 117.730412 156.816736 
L 118.607067 156.474729 
L 119.548659 155.858448 
L 120.555189 154.91782 
L 121.626656 153.602116 
L 122.795529 151.806404 
L 124.094277 149.385747 
L 125.5229 146.231175 
L 127.113866 142.152738 
L 128.899645 136.93173 
L 130.945173 130.226605 
L 133.380326 121.43596 
L 136.627196 108.809391 
L 144.062528 79.626564 
L 146.562618 70.872056 
L 148.640615 64.370866 
L 150.458863 59.386746 
L 152.082298 55.567954 
L 153.510921 52.744894 
L 154.809669 50.642457 
L 156.011011 49.108257 
L 157.082478 48.082793 
L 158.089007 47.419886 
L 158.998131 47.074371 
L 159.874786 46.97035 
L 160.751441 47.091755 
L 161.628096 47.43809 
L 162.569688 48.058977 
L 163.576218 49.00446 
L 164.647685 50.325222 
L 165.816558 52.126288 
L 167.115306 54.552648 
L 168.543929 57.713134 
L 170.134896 61.797637 
L 171.920674 67.024707 
L 173.966202 73.735675 
L 176.401355 82.531573 
L 179.680694 95.291443 
L 187.01862 124.101016 
L 189.51871 132.87263 
L 191.596707 139.392103 
L 193.414955 144.394896 
L 195.03839 148.232194 
L 196.499481 151.131207 
L 197.798229 153.239068 
L 198.999571 154.778467 
L 200.071038 155.808681 
L 201.077568 156.47612 
L 201.986692 156.825766 
L 202.863347 156.933789 
L 203.740002 156.816384 
L 204.616657 156.474032 
L 205.558249 155.857385 
L 206.564779 154.916371 
L 207.636246 153.600265 
L 208.805119 151.804128 
L 210.103867 149.383017 
L 211.53249 146.227975 
L 213.123456 142.149056 
L 214.909235 136.927566 
L 216.954763 130.221976 
L 219.389916 121.430913 
L 222.636786 108.804036 
L 230.072118 79.621632 
L 232.572208 70.867604 
L 234.650205 64.366926 
L 236.468453 59.38333 
L 238.091888 55.565056 
L 239.520511 52.742487 
L 240.819259 50.640518 
L 242.020601 49.106766 
L 243.092068 48.081712 
L 244.098597 47.419198 
L 245.007721 47.07404 
L 245.884376 46.970363 
L 246.761031 47.092114 
L 247.637686 47.438793 
L 248.579278 48.060046 
L 249.585808 49.005915 
L 250.657275 50.327079 
L 251.826148 52.12857 
L 253.124896 54.555383 
L 254.553519 57.716339 
L 256.144486 61.801324 
L 257.930264 67.028875 
L 259.975792 73.740307 
L 262.410945 82.536622 
L 265.690284 95.296801 
L 273.02821 124.105956 
L 275.5283 132.877093 
L 277.606297 139.396055 
L 279.424545 144.398327 
L 281.04798 148.235108 
L 282.509071 151.13362 
L 283.807819 153.241013 
L 285.009161 154.779963 
L 286.080628 155.809767 
L 287.087158 156.476814 
L 287.996282 156.826104 
L 288.872937 156.933781 
L 289.749592 156.816031 
L 290.626247 156.473335 
L 291.567839 155.856322 
L 292.574369 154.914922 
L 293.645836 153.598414 
L 294.814709 151.801852 
L 296.113457 149.380287 
L 297.54208 146.224775 
L 299.133046 142.145374 
L 300.918825 136.923401 
L 302.964353 130.217346 
L 305.399506 121.425866 
L 308.646376 108.798681 
L 316.081709 79.6167 
L 318.581799 70.863153 
L 320.659795 64.362987 
L 322.478043 59.379914 
L 324.101478 55.562159 
L 325.530101 52.74008 
L 326.828849 50.638579 
L 328.030191 49.105277 
L 329.101658 48.080633 
L 330.108188 47.41851 
L 331.017311 47.073708 
L 331.893966 46.970377 
L 332.770621 47.092473 
L 333.647276 47.439496 
L 334.588868 48.061116 
L 335.595398 49.00737 
L 336.666865 50.328936 
L 337.835738 52.130853 
L 339.134487 54.558119 
L 340.563109 57.719544 
L 342.154076 61.805011 
L 343.939854 67.033044 
L 345.985383 73.74494 
L 348.420535 82.541672 
L 351.699874 95.302158 
L 359.037801 124.110896 
L 361.537891 132.881555 
L 363.615887 139.400007 
L 365.434135 144.401757 
L 367.05757 148.238021 
L 368.518661 151.136032 
L 369.817409 153.242957 
L 371.018751 154.781458 
L 372.090218 155.810852 
L 373.096748 156.477508 
L 374.005872 156.826442 
L 374.882527 156.933773 
L 375.759182 156.815677 
L 376.635837 156.472638 
L 377.577429 155.855259 
L 378.583959 154.913473 
L 379.655426 153.596563 
L 380.824299 151.799575 
L 382.123047 149.377557 
L 383.55167 146.221574 
L 385.142636 142.141691 
L 386.928415 136.919236 
L 388.973943 130.212717 
L 391.409096 121.420819 
L 394.655966 108.793326 
L 398.487273 93.456438 
L 398.487273 93.456438 
" clip-path="url(#pbe385ecd4c)" style="fill: none; stroke: #1f77b4; stroke-width: 1.5; stroke-linecap: square"/>
   </g>
   <g id="patch_3">
    <path d="M 57.6 162.432 
L 57.6 41.472 
" style="fill: none; stroke: #000000; stroke-width: 0.8; stroke-linejoin: miter; stroke-linecap: square"/>
   </g>
   <g id="patch_4">
    <path d="M 414.72 162.432 
L 414.72 41.472 
" style="fill: none; stroke: #000000; stroke-width: 0.8; stroke-linejoin: miter; stroke-linecap: square"/>
   </g>
   <g id="patch_5">
    <path d="M 57.6 162.432 
L 414.72 162.432 
" style="fill: none; stroke: #000000; stroke-width: 0.8; stroke-linejoin: miter; stroke-linecap: square"/>
   </g>
   <g id="patch_6">
    <path d="M 57.6 41.472 
L 414.72 41.472 
" style="fill: none; stroke: #000000; stroke-width: 0.8; stroke-linejoin: miter; stroke-linecap: square"/>
   </g>
  </g>
  <g id="axes_2">
   <g id="patch_7">
    <path d="M 57.6 307.584 
L 414.72 307.584 
L 414.72 186.624 
L 57.6 186.624 
z
" style="fill: #ffffff"/>
   </g>
   <g id="matplotlib.axis_3">
    <g id="xtick_9">
     <g id="line2d_15">
      <g>
       <use xlink:href="#mae0d016789" x="73.832727" y="307.584" style="stroke: #000000; stroke-width: 0.8"/>
      </g>
     </g>
     <g id="text_15">
      <!-- 0 -->
      <g transform="translate(70.651477 322.182437) scale(0.1 -0.1)">
       <use xlink:href="#DejaVuSans-30"/>
      </g>
     </g>
    </g>
    <g id="xtick_10">
     <g id="line2d_16">
      <g>
       <use xlink:href="#mae0d016789" x="117.12" y="307.584" style="stroke: #000000; stroke-width: 0.8"/>
      </g>
     </g>
     <g id="text_16">
      <!-- 2 -->
      <g transform="translate(113.93875 322.182437) scale(0.1 -0.1)">
       <use xlink:href="#DejaVuSans-32"/>
      </g>
     </g>
    </g>
    <g id="xtick_11">
     <g id="line2d_17">
      <g>
       <use xlink:href="#mae0d016789" x="160.407273" y="307.584" style="stroke: #000000; stroke-width: 0.8"/>
      </g>
     </g>
     <g id="text_17">
      <!-- 4 -->
      <g transform="translate(157.226023 322.182437) scale(0.1 -0.1)">
       <use xlink:href="#DejaVuSans-34"/>
      </g>
     </g>
    </g>
    <g id="xtick_12">
     <g id="line2d_18">
      <g>
       <use xlink:href="#mae0d016789" x="203.694545" y="307.584" style="stroke: #000000; stroke-width: 0.8"/>
      </g>
     </g>
     <g id="text_18">
      <!-- 6 -->
      <g transform="translate(200.513295 322.182437) scale(0.1 -0.1)">
       <use xlink:href="#DejaVuSans-36"/>
      </g>
     </g>
    </g>
    <g id="xtick_13">
     <g id="line2d_19">
      <g>
       <use xlink:href="#mae0d016789" x="246.981818" y="307.584" style="stroke: #000000; stroke-width: 0.8"/>
      </g>
     </g>
     <g id="text_19">
      <!-- 8 -->
      <g transform="translate(243.800568 322.182437) scale(0.1 -0.1)">
       <use xlink:href="#DejaVuSans-38"/>
      </g>
     </g>
    </g>
    <g id="xtick_14">
     <g id="line2d_20">
      <g>
       <use xlink:href="#mae0d016789" x="290.269091" y="307.584" style="stroke: #000000; stroke-width: 0.8"/>
      </g>
     </g>
     <g id="text_20">
      <!-- 10 -->
      <g transform="translate(283.906591 322.182437) scale(0.1 -0.1)">
       <use xlink:href="#DejaVuSans-31"/>
       <use xlink:href="#DejaVuSans-30" x="63.623047"/>
      </g>
     </g>
    </g>
    <g id="xtick_15">
     <g id="line2d_21">
      <g>
       <use xlink:href="#mae0d016789" x="333.556364" y="307.584" style="stroke: #000000; stroke-width: 0.8"/>
      </g>
     </g>
     <g id="text_21">
      <!-- 12 -->
      <g transform="translate(327.193864 322.182437) scale(0.1 -0.1)">
       <use xlink:href="#DejaVuSans-31"/>
       <use xlink:href="#DejaVuSans-32" x="63.623047"/>
      </g>
     </g>
    </g>
    <g id="xtick_16">
     <g id="line2d_22">
      <g>
       <use xlink:href="#mae0d016789" x="376.843636" y="307.584" style="stroke: #000000; stroke-width: 0.8"/>
      </g>
     </g>
     <g id="text_22">
      <!-- 14 -->
      <g transform="translate(370.481136 322.182437) scale(0.1 -0.1)">
       <use xlink:href="#DejaVuSans-31"/>
       <use xlink:href="#DejaVuSans-34" x="63.623047"/>
      </g>
     </g>
    </g>
    <g id="text_23">
     <!-- time $t$ -->
     <g transform="translate(221.31 335.860562) scale(0.1 -0.1)">
      <defs>
       <path id="DejaVuSans-6d" d="M 3328 2828 
Q 3544 3216 3844 3400 
Q 4144 3584 4550 3584 
Q 5097 3584 5394 3201 
Q 5691 2819 5691 2113 
L 5691 0 
L 5113 0 
L 5113 2094 
Q 5113 2597 4934 2840 
Q 4756 3084 4391 3084 
Q 3944 3084 3684 2787 
Q 3425 2491 3425 1978 
L 3425 0 
L 2847 0 
L 2847 2094 
Q 2847 2600 2669 2842 
Q 2491 3084 2119 3084 
Q 1678 3084 1418 2786 
Q 1159 2488 1159 1978 
L 1159 0 
L 581 0 
L 581 3500 
L 1159 3500 
L 1159 2956 
Q 1356 3278 1631 3431 
Q 1906 3584 2284 3584 
Q 2666 3584 2933 3390 
Q 3200 3197 3328 2828 
z
" transform="scale(0.015625)"/>
       <path id="DejaVuSans-65" d="M 3597 1894 
L 3597 1613 
L 953 1613 
Q 991 1019 1311 708 
Q 1631 397 2203 397 
Q 2534 397 2845 478 
Q 3156 559 3463 722 
L 3463 178 
Q 3153 47 2828 -22 
Q 2503 -91 2169 -91 
Q 1331 -91 842 396 
Q 353 884 353 1716 
Q 353 2575 817 3079 
Q 1281 3584 2069 3584 
Q 2775 3584 3186 3129 
Q 3597 2675 3597 1894 
z
M 3022 2063 
Q 3016 2534 2758 2815 
Q 2500 3097 2075 3097 
Q 1594 3097 1305 2825 
Q 1016 2553 972 2059 
L 3022 2063 
z
" transform="scale(0.015625)"/>
       <path id="DejaVuSans-Oblique-74" d="M 2706 3500 
L 2619 3053 
L 1472 3053 
L 1100 1153 
Q 1081 1047 1072 975 
Q 1063 903 1063 863 
Q 1063 663 1183 572 
Q 1303 481 1569 481 
L 2150 481 
L 2053 0 
L 1503 0 
Q 991 0 739 200 
Q 488 400 488 806 
Q 488 878 497 964 
Q 506 1050 525 1153 
L 897 3053 
L 409 3053 
L 500 3500 
L 978 3500 
L 1172 4494 
L 1747 4494 
L 1556 3500 
L 2706 3500 
z
" transform="scale(0.015625)"/>
      </defs>
      <use xlink:href="#DejaVuSans-74" transform="translate(0 0.015625)"/>
      <use xlink:href="#DejaVuSans-69" transform="translate(39.208984 0.015625)"/>
      <use xlink:href="#DejaVuSans-6d" transform="translate(66.992188 0.015625)"/>
      <use xlink:href="#DejaVuSans-65" transform="translate(164.404297 0.015625)"/>
      <use xlink:href="#DejaVuSans-20" transform="translate(225.927734 0.015625)"/>
      <use xlink:href="#DejaVuSans-Oblique-74" transform="translate(257.714844 0.015625)"/>
     </g>
    </g>
   </g>
   <g id="matplotlib.axis_4">
    <g id="ytick_6">
     <g id="line2d_23">
      <g>
       <use xlink:href="#m72e9ed79f1" x="57.6" y="281.877555" style="stroke: #000000; stroke-width: 0.8"/>
      </g>
     </g>
     <g id="text_24">
      <!-- −1 -->
      <g transform="translate(35.857813 285.676773) scale(0.1 -0.1)">
       <use xlink:href="#DejaVuSans-2212"/>
       <use xlink:href="#DejaVuSans-31" x="83.789062"/>
      </g>
     </g>
    </g>
    <g id="ytick_7">
     <g id="line2d_24">
      <g>
       <use xlink:href="#m72e9ed79f1" x="57.6" y="247.103995" style="stroke: #000000; stroke-width: 0.8"/>
      </g>
     </g>
     <g id="text_25">
      <!-- 0 -->
      <g transform="translate(44.2375 250.903214) scale(0.1 -0.1)">
       <use xlink:href="#DejaVuSans-30"/>
      </g>
     </g>
    </g>
    <g id="ytick_8">
     <g id="line2d_25">
      <g>
       <use xlink:href="#m72e9ed79f1" x="57.6" y="212.330435" style="stroke: #000000; stroke-width: 0.8"/>
      </g>
     </g>
     <g id="text_26">
      <!-- 1 -->
      <g transform="translate(44.2375 216.129654) scale(0.1 -0.1)">
       <use xlink:href="#DejaVuSans-31"/>
      </g>
     </g>
    </g>
    <g id="text_27">
     <!-- Velocity $v$ -->
     <g transform="translate(29.757812 271.704) rotate(-90) scale(0.1 -0.1)">
      <defs>
       <path id="DejaVuSans-56" d="M 1831 0 
L 50 4666 
L 709 4666 
L 2188 738 
L 3669 4666 
L 4325 4666 
L 2547 0 
L 1831 0 
z
" transform="scale(0.015625)"/>
       <path id="DejaVuSans-6c" d="M 603 4863 
L 1178 4863 
L 1178 0 
L 603 0 
L 603 4863 
z
" transform="scale(0.015625)"/>
       <path id="DejaVuSans-63" d="M 3122 3366 
L 3122 2828 
Q 2878 2963 2633 3030 
Q 2388 3097 2138 3097 
Q 1578 3097 1268 2742 
Q 959 2388 959 1747 
Q 959 1106 1268 751 
Q 1578 397 2138 397 
Q 2388 397 2633 464 
Q 2878 531 3122 666 
L 3122 134 
Q 2881 22 2623 -34 
Q 2366 -91 2075 -91 
Q 1284 -91 818 406 
Q 353 903 353 1747 
Q 353 2603 823 3093 
Q 1294 3584 2113 3584 
Q 2378 3584 2631 3529 
Q 2884 3475 3122 3366 
z
" transform="scale(0.015625)"/>
       <path id="DejaVuSans-79" d="M 2059 -325 
Q 1816 -950 1584 -1140 
Q 1353 -1331 966 -1331 
L 506 -1331 
L 506 -850 
L 844 -850 
Q 1081 -850 1212 -737 
Q 1344 -625 1503 -206 
L 1606 56 
L 191 3500 
L 800 3500 
L 1894 763 
L 2988 3500 
L 3597 3500 
L 2059 -325 
z
" transform="scale(0.015625)"/>
       <path id="DejaVuSans-Oblique-76" d="M 459 3500 
L 1069 3500 
L 1581 525 
L 3256 3500 
L 3866 3500 
L 1875 0 
L 1100 0 
L 459 3500 
z
" transform="scale(0.015625)"/>
      </defs>
      <use xlink:href="#DejaVuSans-56" transform="translate(0 0.015625)"/>
      <use xlink:href="#DejaVuSans-65" transform="translate(68.408203 0.015625)"/>
      <use xlink:href="#DejaVuSans-6c" transform="translate(129.931641 0.015625)"/>
      <use xlink:href="#DejaVuSans-6f" transform="translate(157.714844 0.015625)"/>
      <use xlink:href="#DejaVuSans-63" transform="translate(218.896484 0.015625)"/>
      <use xlink:href="#DejaVuSans-69" transform="translate(273.876953 0.015625)"/>
      <use xlink:href="#DejaVuSans-74" transform="translate(301.660156 0.015625)"/>
      <use xlink:href="#DejaVuSans-79" transform="translate(340.869141 0.015625)"/>
      <use xlink:href="#DejaVuSans-20" transform="translate(400.048828 0.015625)"/>
      <use xlink:href="#DejaVuSans-Oblique-76" transform="translate(431.835938 0.015625)"/>
     </g>
    </g>
   </g>
   <g id="line2d_26">
    <path d="M 73.832727 247.103995 
L 78.865376 266.865832 
L 81.495341 276.299292 
L 83.670744 283.304379 
L 85.52146 288.551981 
L 87.177364 292.608531 
L 88.670924 295.698376 
L 90.002141 297.966219 
L 91.203483 299.600717 
L 92.307418 300.746671 
L 93.313948 301.487761 
L 94.25554 301.915021 
L 95.132195 302.079799 
L 96.00885 302.019173 
L 96.885505 301.733393 
L 97.794629 301.200473 
L 98.76869 300.364881 
L 99.840157 299.134575 
L 101.00903 297.429351 
L 102.27531 295.168643 
L 103.671464 292.200537 
L 105.229962 288.335248 
L 106.950803 283.449361 
L 108.931394 277.121186 
L 111.236671 268.975452 
L 114.191323 257.664003 
L 123.542309 221.23512 
L 125.847587 213.469168 
L 127.828178 207.549516 
L 129.549019 203.073364 
L 131.107517 199.617473 
L 132.503671 197.042562 
L 133.76995 195.156536 
L 134.906355 193.84177 
L 135.945353 192.960567 
L 136.919414 192.417528 
L 137.828538 192.160381 
L 138.705193 192.141852 
L 139.581848 192.348669 
L 140.490971 192.800252 
L 141.432564 193.520347 
L 142.471562 194.608878 
L 143.575498 196.096485 
L 144.809309 198.150946 
L 146.140525 200.81277 
L 147.634086 204.318562 
L 149.289989 208.79827 
L 151.173174 214.569241 
L 153.348577 221.993369 
L 156.011011 231.92048 
L 160.134536 248.283027 
L 164.907435 266.992507 
L 167.5374 276.414285 
L 169.680334 283.308441 
L 171.53105 288.555527 
L 173.186954 292.61156 
L 174.680514 295.700901 
L 176.011731 297.968269 
L 177.213073 299.602321 
L 178.317008 300.747855 
L 179.323538 301.488555 
L 180.265131 301.915446 
L 181.141785 302.079878 
L 182.01844 302.018907 
L 182.895095 301.732783 
L 183.804219 301.199508 
L 184.77828 300.363541 
L 185.849747 299.132831 
L 187.01862 297.427177 
L 188.2849 295.166022 
L 189.681054 292.197449 
L 191.239552 288.331677 
L 192.960393 283.445311 
L 194.940984 277.116664 
L 197.246261 268.970501 
L 200.200913 257.658706 
L 209.551899 221.230357 
L 211.857177 213.464899 
L 213.837768 207.545768 
L 215.558609 203.070132 
L 217.117107 199.614753 
L 218.513261 197.040331 
L 219.77954 195.154768 
L 220.915945 193.840431 
L 221.954943 192.959629 
L 222.929004 192.416969 
L 223.838128 192.16018 
L 224.714783 192.141996 
L 225.591438 192.349159 
L 226.500561 192.801097 
L 227.442154 193.521556 
L 228.481152 194.610483 
L 229.585088 196.0985 
L 230.818899 198.153404 
L 232.150115 200.815682 
L 233.643676 204.321952 
L 235.299579 208.802142 
L 237.182764 214.573592 
L 239.358167 221.99817 
L 242.020601 231.925667 
L 246.144126 248.288423 
L 250.917025 266.997539 
L 253.54699 276.418851 
L 255.689924 283.312503 
L 257.54064 288.559073 
L 259.196544 292.614589 
L 260.690104 295.703425 
L 262.021321 297.970318 
L 263.222663 299.603924 
L 264.326598 300.749038 
L 265.333128 301.489348 
L 266.274721 301.91587 
L 267.151376 302.079957 
L 268.02803 302.018641 
L 268.904685 301.732172 
L 269.813809 301.198543 
L 270.78787 300.3622 
L 271.859337 299.131085 
L 273.02821 297.425003 
L 274.29449 295.163401 
L 275.690644 292.194361 
L 277.249142 288.328106 
L 278.969983 283.441261 
L 280.950574 277.112142 
L 283.255851 268.965549 
L 286.210503 257.653409 
L 295.561489 221.225595 
L 297.866767 213.46063 
L 299.847358 207.54202 
L 301.568199 203.0669 
L 303.126697 199.612033 
L 304.522851 197.0381 
L 305.78913 195.153001 
L 306.925535 193.839092 
L 307.964533 192.958691 
L 308.938594 192.416411 
L 309.847718 192.15998 
L 310.724373 192.142142 
L 311.601028 192.349649 
L 312.510151 192.801943 
L 313.451744 193.522767 
L 314.490742 194.612088 
L 315.594678 196.100515 
L 316.828489 198.155862 
L 318.159705 200.818595 
L 319.653266 204.325342 
L 321.309169 208.806015 
L 323.192354 214.577944 
L 325.367757 222.002972 
L 328.030191 231.930855 
L 332.186184 248.424198 
L 336.926615 267.00257 
L 339.55658 276.423417 
L 341.699514 283.316564 
L 343.55023 288.562618 
L 345.206134 292.617617 
L 346.699694 295.705949 
L 348.030911 297.972366 
L 349.232253 299.605527 
L 350.336189 300.75022 
L 351.342718 301.490141 
L 352.284311 301.916294 
L 353.160966 302.080036 
L 354.03762 302.018374 
L 354.914275 301.731561 
L 355.823399 301.197577 
L 356.79746 300.360859 
L 357.868927 299.12934 
L 359.037801 297.422828 
L 360.30408 295.160779 
L 361.700234 292.191272 
L 363.258732 288.324535 
L 364.979573 283.43721 
L 366.960164 277.107619 
L 369.265441 268.960596 
L 372.220093 257.648112 
L 381.571079 221.220833 
L 383.876357 213.456361 
L 385.856948 207.538272 
L 387.577789 203.063669 
L 389.136287 199.609314 
L 390.532441 197.03587 
L 391.79872 195.151234 
L 392.935125 193.837754 
L 393.974123 192.957753 
L 394.948184 192.415854 
L 395.857308 192.15978 
L 396.733963 192.142287 
L 397.610618 192.35014 
L 398.487273 192.782486 
L 398.487273 192.782486 
" clip-path="url(#pb8aba15460)" style="fill: none; stroke: #d62728; stroke-width: 1.5; stroke-linecap: square"/>
   </g>
   <g id="patch_8">
    <path d="M 57.6 307.584 
L 57.6 186.624 
" style="fill: none; stroke: #000000; stroke-width: 0.8; stroke-linejoin: miter; stroke-linecap: square"/>
   </g>
   <g id="patch_9">
    <path d="M 414.72 307.584 
L 414.72 186.624 
" style="fill: none; stroke: #000000; stroke-width: 0.8; stroke-linejoin: miter; stroke-linecap: square"/>
   </g>
   <g id="patch_10">
    <path d="M 57.6 307.584 
L 414.72 307.584 
" style="fill: none; stroke: #000000; stroke-width: 0.8; stroke-linejoin: miter; stroke-linecap: square"/>
   </g>
   <g id="patch_11">
    <path d="M 57.6 186.624 
L 414.72 186.624 
" style="fill: none; stroke: #000000; stroke-width: 0.8; stroke-linejoin: miter; stroke-linecap: square"/>
   </g>
  </g>
  <g id="text_28">
   <!-- Harmonic Oscillator solution -->
   <g transform="translate(145.677188 16.030125) scale(0.12 -0.12)">
    <defs>
     <path id="DejaVuSans-48" d="M 628 4666 
L 1259 4666 
L 1259 2753 
L 3553 2753 
L 3553 4666 
L 4184 4666 
L 4184 0 
L 3553 0 
L 3553 2222 
L 1259 2222 
L 1259 0 
L 628 0 
L 628 4666 
z
" transform="scale(0.015625)"/>
     <path id="DejaVuSans-61" d="M 2194 1759 
Q 1497 1759 1228 1600 
Q 959 1441 959 1056 
Q 959 750 1161 570 
Q 1363 391 1709 391 
Q 2188 391 2477 730 
Q 2766 1069 2766 1631 
L 2766 1759 
L 2194 1759 
z
M 3341 1997 
L 3341 0 
L 2766 0 
L 2766 531 
Q 2569 213 2275 61 
Q 1981 -91 1556 -91 
Q 1019 -91 701 211 
Q 384 513 384 1019 
Q 384 1609 779 1909 
Q 1175 2209 1959 2209 
L 2766 2209 
L 2766 2266 
Q 2766 2663 2505 2880 
Q 2244 3097 1772 3097 
Q 1472 3097 1187 3025 
Q 903 2953 641 2809 
L 641 3341 
Q 956 3463 1253 3523 
Q 1550 3584 1831 3584 
Q 2591 3584 2966 3190 
Q 3341 2797 3341 1997 
z
" transform="scale(0.015625)"/>
     <path id="DejaVuSans-72" d="M 2631 2963 
Q 2534 3019 2420 3045 
Q 2306 3072 2169 3072 
Q 1681 3072 1420 2755 
Q 1159 2438 1159 1844 
L 1159 0 
L 581 0 
L 581 3500 
L 1159 3500 
L 1159 2956 
Q 1341 3275 1631 3429 
Q 1922 3584 2338 3584 
Q 2397 3584 2469 3576 
Q 2541 3569 2628 3553 
L 2631 2963 
z
" transform="scale(0.015625)"/>
     <path id="DejaVuSans-4f" d="M 2522 4238 
Q 1834 4238 1429 3725 
Q 1025 3213 1025 2328 
Q 1025 1447 1429 934 
Q 1834 422 2522 422 
Q 3209 422 3611 934 
Q 4013 1447 4013 2328 
Q 4013 3213 3611 3725 
Q 3209 4238 2522 4238 
z
M 2522 4750 
Q 3503 4750 4090 4092 
Q 4678 3434 4678 2328 
Q 4678 1225 4090 567 
Q 3503 -91 2522 -91 
Q 1538 -91 948 565 
Q 359 1222 359 2328 
Q 359 3434 948 4092 
Q 1538 4750 2522 4750 
z
" transform="scale(0.015625)"/>
     <path id="DejaVuSans-75" d="M 544 1381 
L 544 3500 
L 1119 3500 
L 1119 1403 
Q 1119 906 1312 657 
Q 1506 409 1894 409 
Q 2359 409 2629 706 
Q 2900 1003 2900 1516 
L 2900 3500 
L 3475 3500 
L 3475 0 
L 2900 0 
L 2900 538 
Q 2691 219 2414 64 
Q 2138 -91 1772 -91 
Q 1169 -91 856 284 
Q 544 659 544 1381 
z
M 1991 3584 
L 1991 3584 
z
" transform="scale(0.015625)"/>
    </defs>
    <use xlink:href="#DejaVuSans-48"/>
    <use xlink:href="#DejaVuSans-61" x="75.195312"/>
    <use xlink:href="#DejaVuSans-72" x="136.474609"/>
    <use xlink:href="#DejaVuSans-6d" x="175.837891"/>
    <use xlink:href="#DejaVuSans-6f" x="273.25"/>
    <use xlink:href="#DejaVuSans-6e" x="334.431641"/>
    <use xlink:href="#DejaVuSans-69" x="397.810547"/>
    <use xlink:href="#DejaVuSans-63" x="425.59375"/>
    <use xlink:href="#DejaVuSans-20" x="480.574219"/>
    <use xlink:href="#DejaVuSans-4f" x="512.361328"/>
    <use xlink:href="#DejaVuSans-73" x="591.072266"/>
    <use xlink:href="#DejaVuSans-63" x="643.171875"/>
    <use xlink:href="#DejaVuSans-69" x="698.152344"/>
    <use xlink:href="#DejaVuSans-6c" x="725.935547"/>
    <use xlink:href="#DejaVuSans-6c" x="753.71875"/>
    <use xlink:href="#DejaVuSans-61" x="781.501953"/>
    <use xlink:href="#DejaVuSans-74" x="842.78125"/>
    <use xlink:href="#DejaVuSans-6f" x="881.990234"/>
    <use xlink:href="#DejaVuSans-72" x="943.171875"/>
    <use xlink:href="#DejaVuSans-20" x="984.285156"/>
    <use xlink:href="#DejaVuSans-73" x="1016.072266"/>
    <use xlink:href="#DejaVuSans-6f" x="1068.171875"/>
    <use xlink:href="#DejaVuSans-6c" x="1129.353516"/>
    <use xlink:href="#DejaVuSans-75" x="1157.136719"/>
    <use xlink:href="#DejaVuSans-74" x="1220.515625"/>
    <use xlink:href="#DejaVuSans-69" x="1259.724609"/>
    <use xlink:href="#DejaVuSans-6f" x="1287.507812"/>
    <use xlink:href="#DejaVuSans-6e" x="1348.689453"/>
   </g>
  </g>
 </g>
 <defs>
  <clipPath id="pbe385ecd4c">
   <rect x="57.6" y="41.472" width="357.12" height="120.96"/>
  </clipPath>
  <clipPath id="pb8aba15460">
   <rect x="57.6" y="186.624" width="357.12" height="120.96"/>
  </clipPath>
 </defs>
</svg>
